<svg id="simpleaf" xmlns="http://www.w3.org/2000/svg" width="111" height="52" viewBox="0 0 111 52">
  <defs>
    <style>
      .cls-1 {
        fill: #19831b;
        fill-rule: evenodd;
      }
    </style>
  </defs>
  <path class="cls-1" d="M118.223,6.414a0.829,0.829,0,0,0-.535-1.047,0.838,0.838,0,0,0-1.056.529l-2.851,8.626-3.2,1.283a9.987,9.987,0,0,1,.471-7.7c2.85-5.473,9.838-6.264,15.2-5.964a44.322,44.322,0,0,1,8.936,1.732,0.83,0.83,0,1,0,.464-1.594A45.954,45.954,0,0,0,126.343.481c-8.4-.47-14.2,1.9-16.778,6.859a11.777,11.777,0,0,0-.289,9.783,0.029,0.029,0,0,1,0,.008,0.959,0.959,0,0,0,1.183.512l4.307-1.727a0.834,0.834,0,0,0,.481-0.51Zm9.685,9.795-6.777-3.724,2.356-7.444A0.829,0.829,0,0,0,122.939,4a0.838,0.838,0,0,0-1.049.542c-0.036.114-2.547,8.033-2.574,8.15a0.822,0.822,0,0,0,.406.915L127.1,17.66a0.841,0.841,0,0,0,1.138-.323A0.826,0.826,0,0,0,127.908,16.209ZM128.35,4.948a0.829,0.829,0,0,0-.521-1.054,0.838,0.838,0,0,0-1.063.515l-0.858,2.482a0.828,0.828,0,0,0,.521,1.054,0.839,0.839,0,0,0,1.063-.515ZM116.882,16.665a0.827,0.827,0,0,0,.332,1.126l5.428,2.951a0.842,0.842,0,0,0,1.137-.328,0.827,0.827,0,0,0-.332-1.127l-5.428-2.951A0.841,0.841,0,0,0,116.882,16.665ZM133.3,17.5c3.6-3.867,7.06-10.808,7.935-12.4a0.834,0.834,0,0,0-1.127-1.13c-0.128.028,0.735-.31-14.707,5.883a0.87,0.87,0,0,0-.074,1.554l5.492,3.1a0.84,0.84,0,0,0,1.141-.31,0.825,0.825,0,0,0-.313-1.132l-4.068-2.3,11.112-4.456c-1.467,2.727-4.033,7.276-6.622,10.057-3.639,3.909-9.213,8.155-15.105,6.188a8.722,8.722,0,0,1-4.615-3.208,0.842,0.842,0,0,0-1.169-.186A0.824,0.824,0,0,0,111,20.332a10.385,10.385,0,0,0,5.437,3.807C121.77,25.921,127.6,23.626,133.3,17.5Z" transform="translate(-40.469 -0.406)"/>
  <path class="cls-1" d="M49.679,35.7a1.584,1.584,0,0,0-.7-1.346,3.082,3.082,0,0,0-1.851-.506,3.344,3.344,0,0,0-1.737.38,1.181,1.181,0,0,0-.624,1.06,1,1,0,0,0,.711.826,13.175,13.175,0,0,0,2.481.733,13.017,13.017,0,0,1,4.734,1.719,3.487,3.487,0,0,1,1.2,2.932,4.083,4.083,0,0,1-1.736,3.432,7.455,7.455,0,0,1-4.579,1.3,8.926,8.926,0,0,1-5.183-1.279,4.572,4.572,0,0,1-1.937-3.732H44.37a1.881,1.881,0,0,0,.892,1.566,4.13,4.13,0,0,0,2.313.566,3.489,3.489,0,0,0,1.8-.393,1.224,1.224,0,0,0,.651-1.1,0.993,0.993,0,0,0-.63-0.84,9.69,9.69,0,0,0-2.212-.68,14.62,14.62,0,0,1-4.948-1.746,3.245,3.245,0,0,1-1.245-2.812,4.29,4.29,0,0,1,1.615-3.485,6.5,6.5,0,0,1,4.256-1.326,8.094,8.094,0,0,1,4.8,1.3A4.023,4.023,0,0,1,53.487,35.7H49.679ZM56.8,26.114h3.915v3.545H56.8V26.114Zm0.04,5.238h3.848v14.5H56.84v-14.5Zm7.454,0h3.66v2.332a4.375,4.375,0,0,1,4.337-2.719,4.17,4.17,0,0,1,3.159,1.293,3.96,3.96,0,0,1,.763,1.093l0.47-.76a4.047,4.047,0,0,1,3.478-1.626,4.909,4.909,0,0,1,3.719,1.4,5.371,5.371,0,0,1,1.343,3.878v9.609H81.374V37.336a4.288,4.288,0,0,0-.538-2.406,1.885,1.885,0,0,0-1.667-.78,2.31,2.31,0,0,0-1.849.74,3.163,3.163,0,0,0-.638,2.126v8.836H72.834V36.709a2.83,2.83,0,0,0-.562-1.932,2.6,2.6,0,0,0-3.509.113,3.22,3.22,0,0,0-.621,2.126v8.836H64.294v-14.5Zm24.359,0h3.66V33.5l0.255-.36a4.816,4.816,0,0,1,4.1-2.172A5.493,5.493,0,0,1,101.129,33a8.172,8.172,0,0,1,1.682,5.371,9,9,0,0,1-1.682,5.691,5.373,5.373,0,0,1-4.458,2.159A4.909,4.909,0,0,1,92.582,44.2L92.5,44.093v7.437H88.654V31.352ZM95.572,43.08a2.856,2.856,0,0,0,2.413-1.153,5.213,5.213,0,0,0,.871-3.205,5.44,5.44,0,0,0-.865-3.272,3.019,3.019,0,0,0-4.813.033,5.727,5.727,0,0,0-.865,3.372,4.969,4.969,0,0,0,.865,3.105A2.855,2.855,0,0,0,95.572,43.08Zm10.042-16.819h3.848V45.852h-3.848V26.261Zm13.3,19.964a6.486,6.486,0,0,1-5.128-2.039,8.493,8.493,0,0,1-1.8-5.811,7.661,7.661,0,0,1,1.837-5.444,6.63,6.63,0,0,1,5.094-1.966,6.557,6.557,0,0,1,5.142,2.006,8.256,8.256,0,0,1,1.8,5.711,3.2,3.2,0,0,1-.067.866h-9.934a4.993,4.993,0,0,0,.764,2.572,3.145,3.145,0,0,0,2.681,1.066,2.869,2.869,0,0,0,1.616-.493,1.909,1.909,0,0,0,.891-1.186h3.915a5.542,5.542,0,0,1-2.3,3.465A7.722,7.722,0,0,1,118.912,46.225Zm2.936-9.116a3.958,3.958,0,0,0-.7-2.039,2.689,2.689,0,0,0-2.292-.973,2.576,2.576,0,0,0-2.266,1.133,4.983,4.983,0,0,0-.7,1.879h5.952ZM131.9,46.225a4.581,4.581,0,0,1-3.258-1.153,3.957,3.957,0,0,1-1.233-3.032,4.472,4.472,0,0,1,1.113-3.179,5.309,5.309,0,0,1,3.244-1.5l2.534-.346a5.444,5.444,0,0,0,1.649-.453,0.911,0.911,0,0,0,.436-0.48,1.339,1.339,0,0,0,.114-0.706,1.293,1.293,0,0,0-.63-0.96A3.57,3.57,0,0,0,133.981,34a2.54,2.54,0,0,0-1.716.533,2,2,0,0,0-.657,1.506h-3.686a4.848,4.848,0,0,1,1.742-3.812,7.627,7.627,0,0,1,4.76-1.266,7.192,7.192,0,0,1,4.3,1.141,3.64,3.64,0,0,1,1.576,3.115v8.11a4,4,0,0,0,.161,1.367,1.2,1.2,0,0,0,.643.62v0.533h-4.156V45.839a9.42,9.42,0,0,1-.335-1.719l-0.013-.027A5.868,5.868,0,0,1,131.9,46.225Zm4.626-5.731V38.828a6.29,6.29,0,0,1-1.77.6l-1.421.267a2.94,2.94,0,0,0-1.529.686,1.67,1.67,0,0,0-.522,1.259A1.891,1.891,0,0,0,131.756,43a1.728,1.728,0,0,0,1.314.493,3.674,3.674,0,0,0,2.949-1.293,2.075,2.075,0,0,0,.362-0.746A3.353,3.353,0,0,0,136.529,40.494Zm11.61-6.464V45.852h-3.848V34.031h-2.132V31.352h2.132V30.139a4.029,4.029,0,0,1,1.119-3.119,4.89,4.89,0,0,1,3.4-1.026,12.46,12.46,0,0,1,1.81.093v3.052H149.4a1.278,1.278,0,0,0-1.013.307,2.16,2.16,0,0,0-.247,1.253v0.653h2.48v2.679h-2.48Z" transform="translate(-40.469 -0.406)"/>
</svg>
