<svg xmlns="http://www.w3.org/2000/svg" width="846.969" height="204.438" viewBox="0 0 846.969 204.438">
  <defs>
    <style>
      .cls-1 {
        fill: #a61d37;
      }

      .cls-1, .cls-2 {
        fill-rule: evenodd;
      }

      .cls-2 {
        fill: #1a2844;
      }
    </style>
  </defs>
  <path class="cls-1" d="M134.015,41.175L96.95,34.87,98.8,25.5,90.64,21.56,88.863,32.614,87.087,43.667A1,1,0,1,1,85.2,43l3.553-22.108-6.392-2.939L121.388,0.548l32,29.489L135.665,31.5Zm-0.494,2.9L132.2,51.8a18.8,18.8,0,1,1-37.065-6.3l1.317-7.725Zm-46.144.916a1.919,1.919,0,1,1-1.564-2.24A1.933,1.933,0,0,1,87.377,44.994Zm-4.684,4.648,3.782,0.643,0.9-5.292-3.782-.643Z" transform="translate(0 -0.563)"/>
  <path class="cls-1" d="M43,17c4.247,5.81,8.509,11.383,13,17,4.754,5.944,10.6,12.5,16,19,2.547,3.067,10.283,11.148,16,17,3.413,3.494,10.233,10.269,21,13,4.043,1.026,11.67,1.63,20,0a72.525,72.525,0,0,0,21-8,86.9,86.9,0,0,0,12-8,274.243,274.243,0,0,0-18,30c-1.8,3.482-4.22,8.132-5,10-2.684,6.426-3.67,10.866-8,16a35.2,35.2,0,0,1-10,8c-1.5.839-7.406,2.853-11,6a24.445,24.445,0,0,0-7,11,35.8,35.8,0,0,0-18-16q-3.18-17.2-8-34Q72,80.565,65,63A382.494,382.494,0,0,0,43,17Z" transform="translate(0 -0.563)"/>
  <path id="Academic" class="cls-1" d="M281.1,106.028h24.008L276.692,34.754H253.543l19.067,49.36H259.72L254.778,98.24h23.311Zm-19.6-39.746L250.965,37.977l-25.459,68.051H248.44Zm74.147-31.528h-9.453L311.9,48.988V91.8l14.287,14.233h9.453V34.754ZM355.19,48.988V63.328h23.74V48.988L364.7,34.754H339.4V48.988H355.19Zm9.507,57.041L378.93,91.8V81.375H355.19V91.8H339.4v14.233h25.3Zm76.51,0h24.009L436.8,34.754h-23.15l19.068,49.36H419.83L414.889,98.24H438.2ZM421.6,66.282L411.075,37.977l-25.459,68.051h22.935Zm106.105,39.746L541.994,91.8V48.988L527.707,34.754H500.583V48.988H518.2V91.8H500.583v14.233h27.124Zm-54.624,0h23.74V34.754h-23.74v71.274ZM600.458,76.756V63.006h-22.72V34.754H554v71.274h23.74V76.756h22.72Zm-4.19-28.2v6.821h22.344V34.754H581.5v13.8h14.77Zm22.344,57.47V84.652h-23.74V91.8H581.5v14.233h37.114Zm54.811,0,17.134-29.487V40.662L675.518,66.444,656.4,34.754H631.152Zm44.365,0V34.754h-23.74v71.274h23.74Zm-64.507,0V78.582L631.1,41.361v64.668h22.182Zm77.1,0H768.41v-15.2h-7.144V49.9h7.144V34.754H730.382V49.9h7.144V90.828h-7.144v15.2ZM803.67,34.754h-9.453L779.93,48.988V91.8l14.287,14.233h9.453V34.754Zm19.551,14.233V63.328h23.74V48.988L832.727,34.754h-25.3V48.988h15.791Zm9.506,57.041L846.961,91.8V81.375h-23.74V91.8H807.43v14.233h25.3Z" transform="translate(0 -0.563)"/>
  <path id="University_Collage" data-name="University &amp; Collage" class="cls-1" d="M239.908,164.3a7.744,7.744,0,0,0,3.63-3.124,10.726,10.726,0,0,0,1.342-5.72v-21.12a1.187,1.187,0,0,0-.748-1.144,3.687,3.687,0,0,0-1.584-.352,3.6,3.6,0,0,0-1.628.352,1.19,1.19,0,0,0-.7,1.144v21.12a5.683,5.683,0,0,1-1.452,4.29,5.5,5.5,0,0,1-3.96,1.386,5.4,5.4,0,0,1-3.96-1.386,5.789,5.789,0,0,1-1.408-4.29v-21.12a1.187,1.187,0,0,0-.748-1.144,3.687,3.687,0,0,0-1.584-.352,3.6,3.6,0,0,0-1.628.352,1.19,1.19,0,0,0-.7,1.144v21.12a10.863,10.863,0,0,0,1.32,5.72A7.618,7.618,0,0,0,229.7,164.3,13.94,13.94,0,0,0,239.908,164.3Zm28.27,0.22a1.335,1.335,0,0,0,.682-1.056V152.548a4.652,4.652,0,0,1,.616-2.464,4.364,4.364,0,0,1,1.584-1.562,4.075,4.075,0,0,1,4.268.11,4.875,4.875,0,0,1,1.606,1.716,4.429,4.429,0,0,1,.594,2.2V163.46a1.241,1.241,0,0,0,.748,1.144,3.251,3.251,0,0,0,1.54.4,3.3,3.3,0,0,0,1.606-.4,1.244,1.244,0,0,0,.726-1.144V152.548a9.076,9.076,0,0,0-1.056-4.378,8.617,8.617,0,0,0-2.794-3.124,6.7,6.7,0,0,0-3.806-1.166,6.553,6.553,0,0,0-5.9,3.344V145.64a1.259,1.259,0,0,0-.616-1.078,2.53,2.53,0,0,0-1.452-.418,2.964,2.964,0,0,0-1.65.418,1.248,1.248,0,0,0-.638,1.078v17.82a1.345,1.345,0,0,0,.638,1.056,2.652,2.652,0,0,0,1.65.484A2.776,2.776,0,0,0,268.178,164.516Zm37.048,0a1.335,1.335,0,0,0,.682-1.056V145.64a1.239,1.239,0,0,0-.682-1.078,3.111,3.111,0,0,0-1.65-.418,2.96,2.96,0,0,0-1.65.418,1.248,1.248,0,0,0-.638,1.078v17.82a1.345,1.345,0,0,0,.638,1.056,2.649,2.649,0,0,0,1.65.484A2.78,2.78,0,0,0,305.226,164.516Zm0.22-26.356a2.288,2.288,0,0,0,.77-1.672,2.245,2.245,0,0,0-.77-1.716,2.677,2.677,0,0,0-1.87-.7,2.809,2.809,0,0,0-1.936.7,2.213,2.213,0,0,0-.792,1.716,2.256,2.256,0,0,0,.792,1.672,2.711,2.711,0,0,0,1.936.748A2.586,2.586,0,0,0,305.446,138.16ZM334.177,165.2a1.481,1.481,0,0,0,.814-0.682l7.348-17.82a1.565,1.565,0,0,0,.176-0.748,1.3,1.3,0,0,0-.55-0.99,4.194,4.194,0,0,0-1.276-.726,3.689,3.689,0,0,0-1.21-.264,1.521,1.521,0,0,0-.88.242,1.461,1.461,0,0,0-.528.682l-5.192,13.816-5.28-13.9a0.994,0.994,0,0,0-.55-0.638,1.986,1.986,0,0,0-.858-0.2,3.6,3.6,0,0,0-1.3.264,3.981,3.981,0,0,0-1.188.7,1.315,1.315,0,0,0-.506,1.012,1.386,1.386,0,0,0,.066.4c0.044,0.147.081,0.264,0.11,0.352l7.392,17.82a1.287,1.287,0,0,0,.77.682,3.535,3.535,0,0,0,1.342.242A3.416,3.416,0,0,0,334.177,165.2Zm38.874-.4a7.418,7.418,0,0,0,2.53-1.342,2.132,2.132,0,0,0,.9-1.452,2.165,2.165,0,0,0-.22-0.88,2.506,2.506,0,0,0-.616-0.836,1.411,1.411,0,0,0-.968-0.352,2.419,2.419,0,0,0-1.232.4,16.474,16.474,0,0,1-1.628.836,6.1,6.1,0,0,1-2.508.44,6.332,6.332,0,0,1-4.114-1.3,4.258,4.258,0,0,1-1.606-3.5V155.8h9.284a10.281,10.281,0,0,0,1.936-.176,2.33,2.33,0,0,0,1.5-.968,4.644,4.644,0,0,0,.572-2.64,7.543,7.543,0,0,0-1.21-4.224,8.4,8.4,0,0,0-3.19-2.882,9.27,9.27,0,0,0-4.356-1.034,9.157,9.157,0,0,0-4.576,1.166,9.376,9.376,0,0,0-3.322,3.1,7.692,7.692,0,0,0-1.254,4.268v4.18a8.028,8.028,0,0,0,1.32,4.6,8.88,8.88,0,0,0,3.608,3.058,12.03,12.03,0,0,0,5.28,1.1A12.162,12.162,0,0,0,373.051,164.8Zm-9.46-13.266a3.786,3.786,0,0,1,.616-2.156,4.31,4.31,0,0,1,1.628-1.452,5.033,5.033,0,0,1,4.532.022,4.011,4.011,0,0,1,1.584,1.54,4.209,4.209,0,0,1,.572,2.134,1.315,1.315,0,0,1-.33,1.056,2.223,2.223,0,0,1-1.3.264h-7.3v-1.408Zm35.529,12.98a1.332,1.332,0,0,0,.682-1.056v-9.02a7.2,7.2,0,0,1,.77-3.454,5.9,5.9,0,0,1,2-2.222,4.656,4.656,0,0,1,2.552-.792h1.408a1.582,1.582,0,0,0,1.232-.616,2.158,2.158,0,0,0,.528-1.452,2.079,2.079,0,0,0-.528-1.43,1.6,1.6,0,0,0-1.232-.594h-1.408a5.245,5.245,0,0,0-2.376.55,7.064,7.064,0,0,0-1.914,1.386,7.571,7.571,0,0,0-1.3,1.76V145.64a1.257,1.257,0,0,0-.616-1.078,2.606,2.606,0,0,0-1.5-.418,2.879,2.879,0,0,0-1.606.418,1.25,1.25,0,0,0-.638,1.078v17.82a1.347,1.347,0,0,0,.638,1.056,2.579,2.579,0,0,0,1.606.484A2.851,2.851,0,0,0,399.12,164.516Zm38.28-.836a5.5,5.5,0,0,0,2-4.444,5.758,5.758,0,0,0-.77-3.168,5.835,5.835,0,0,0-1.98-1.892,10.8,10.8,0,0,0-2.574-1.078q-1.365-.374-2.6-0.726a6.534,6.534,0,0,1-1.98-.88,1.722,1.722,0,0,1-.748-1.5,2.167,2.167,0,0,1,.352-1.144,2.886,2.886,0,0,1,1.122-.99,4.3,4.3,0,0,1,2.046-.418,6.588,6.588,0,0,1,2.156.308,13.427,13.427,0,0,1,1.54.638,2.592,2.592,0,0,0,1.1.33,1.215,1.215,0,0,0,.946-0.418,3.245,3.245,0,0,0,.594-0.968,2.525,2.525,0,0,0,.22-0.858,1.633,1.633,0,0,0-.968-1.3,8.413,8.413,0,0,0-2.464-.946,13.842,13.842,0,0,0-3.168-.352,8.884,8.884,0,0,0-4.422.946,5.853,5.853,0,0,0-2.4,2.42,6.5,6.5,0,0,0-.748,2.97,4.96,4.96,0,0,0,.77,2.9,5.314,5.314,0,0,0,1.98,1.716,13.481,13.481,0,0,0,2.574.99q1.363,0.375,2.574.77a6.015,6.015,0,0,1,1.98,1.034,2.189,2.189,0,0,1,.77,1.782,2.242,2.242,0,0,1-.77,1.628,4.341,4.341,0,0,1-2.97.748,6.952,6.952,0,0,1-2.948-.506,8.97,8.97,0,0,1-1.694-1.012,1.991,1.991,0,0,0-1.21-.506,1.169,1.169,0,0,0-.814.352,2.543,2.543,0,0,0-.77,1.716,2.226,2.226,0,0,0,.99,1.65,7.89,7.89,0,0,0,2.706,1.342,13.147,13.147,0,0,0,3.872.528A8.655,8.655,0,0,0,437.4,163.68Zm24.244,0.836a1.335,1.335,0,0,0,.682-1.056V145.64a1.239,1.239,0,0,0-.682-1.078,3.111,3.111,0,0,0-1.65-.418,2.96,2.96,0,0,0-1.65.418,1.248,1.248,0,0,0-.638,1.078v17.82a1.345,1.345,0,0,0,.638,1.056,2.649,2.649,0,0,0,1.65.484A2.78,2.78,0,0,0,461.644,164.516Zm0.22-26.356a2.288,2.288,0,0,0,.77-1.672,2.245,2.245,0,0,0-.77-1.716,2.677,2.677,0,0,0-1.87-.7,2.809,2.809,0,0,0-1.936.7,2.213,2.213,0,0,0-.792,1.716,2.256,2.256,0,0,0,.792,1.672,2.711,2.711,0,0,0,1.936.748A2.586,2.586,0,0,0,461.864,138.16ZM490.749,165a1.849,1.849,0,0,0,1.518-.616,2.1,2.1,0,0,0,.506-1.364,2.073,2.073,0,0,0-.506-1.386,1.884,1.884,0,0,0-1.518-.594h-1.5a3.424,3.424,0,0,1-2.4-.66,3.04,3.04,0,0,1-.682-2.244v-10.56h5.368a1.052,1.052,0,0,0,.946-0.528,2.3,2.3,0,0,0,0-2.376,1.052,1.052,0,0,0-.946-0.528h-5.368v-8.052a1.232,1.232,0,0,0-.748-1.078,3.207,3.207,0,0,0-1.584-.418,3.086,3.086,0,0,0-1.562.418,1.232,1.232,0,0,0-.726,1.078v22.044q0,3.564,1.98,5.214a8.721,8.721,0,0,0,5.72,1.65h1.5Zm24.09,8.91a8.336,8.336,0,0,0,2.772-2.618,18.432,18.432,0,0,0,1.826-3.586q0.747-1.959,1.452-3.85l6.6-17.2a0.874,0.874,0,0,0,.132-0.528,1.548,1.548,0,0,0-.55-1.166,4.45,4.45,0,0,0-1.276-.814,3.313,3.313,0,0,0-1.254-.308,1.757,1.757,0,0,0-.792.2,1,1,0,0,0-.528.638l-4.8,14.3-5.544-14.3a1,1,0,0,0-.55-0.638,1.992,1.992,0,0,0-.858-0.2,3.3,3.3,0,0,0-1.32.308,3.9,3.9,0,0,0-1.21.814,1.513,1.513,0,0,0-.506,1.078,1.223,1.223,0,0,0,.176.616l7.436,17.072a10.489,10.489,0,0,1-.946,3.212,8.146,8.146,0,0,1-1.628,2.266,6.531,6.531,0,0,1-1.936,1.32,4.747,4.747,0,0,1-1.826.418,0.967,0.967,0,0,0-.968.594,3.387,3.387,0,0,0-.264,1.386,1.743,1.743,0,0,0,.616,1.606,2.829,2.829,0,0,0,1.5.374A8.312,8.312,0,0,0,514.839,173.91Zm68.111-9.548a13.163,13.163,0,0,0,3.762-2.75l3.036,3.168a2.108,2.108,0,0,0,.594.44,1.4,1.4,0,0,0,.594.132,2.125,2.125,0,0,0,1.452-.594,1.733,1.733,0,0,0,.66-1.3,1.4,1.4,0,0,0-.066-0.4,1.332,1.332,0,0,0-.242-0.44l-3.74-3.96a15.15,15.15,0,0,0,1.43-3.256,22.107,22.107,0,0,0,.726-3.168,17.706,17.706,0,0,0,.22-2.508,2.935,2.935,0,0,0-.4-1.672,1.817,1.817,0,0,0-1.584-.572,2.5,2.5,0,0,0-1.606.374,1.559,1.559,0,0,0-.462,1.122q-0.088,1.233-.242,3.036a12.273,12.273,0,0,1-.946,3.7l-7.744-8.36q-0.967-1.056-1.98-2.178a12.784,12.784,0,0,1-1.716-2.4,5.478,5.478,0,0,1-.7-2.684,4.02,4.02,0,0,1,1.21-3.1,4.443,4.443,0,0,1,3.146-1.122,4.78,4.78,0,0,1,2.266.462,5.22,5.22,0,0,1,1.43,1.1q0.572,0.639,1.034,1.122a1.444,1.444,0,0,0,1.078.484,2.137,2.137,0,0,0,1.518-.66,2.031,2.031,0,0,0,.682-1.5,3.293,3.293,0,0,0-.946-2,7.825,7.825,0,0,0-2.772-1.958,11.464,11.464,0,0,0-8.756.066,7.373,7.373,0,0,0-3.168,2.64,7.451,7.451,0,0,0-1.166,4.246,7.768,7.768,0,0,0,.968,3.96A21.3,21.3,0,0,0,572.764,147a11.855,11.855,0,0,0-2.728,2.046,10.166,10.166,0,0,0-2.112,3.014,9.027,9.027,0,0,0-.792,3.828,9.188,9.188,0,0,0,1.276,4.73,9.393,9.393,0,0,0,3.674,3.5A12.948,12.948,0,0,0,582.95,164.362Zm-8.162-3.806a5.416,5.416,0,0,1-2.2-2.134,5.9,5.9,0,0,1-.748-2.926,5.462,5.462,0,0,1,.55-2.552,7.19,7.19,0,0,1,1.364-1.848,10.2,10.2,0,0,1,1.65-1.32l8.536,8.976a6.841,6.841,0,0,1-2.244,1.87,7.044,7.044,0,0,1-3.344.726A7.358,7.358,0,0,1,574.788,160.556Zm74.272,3.652a8.406,8.406,0,0,0,3.5-2.926,7.447,7.447,0,0,0,1.254-4.246,2.5,2.5,0,0,0-.572-1.936,2.769,2.769,0,0,0-1.8-.484,3.3,3.3,0,0,0-1.606.352,1.332,1.332,0,0,0-.682,1.188q-0.088.7-.264,1.562a4.909,4.909,0,0,1-.66,1.628,3.632,3.632,0,0,1-1.474,1.276,5.885,5.885,0,0,1-2.662.506,5.453,5.453,0,0,1-4.026-1.386,5.848,5.848,0,0,1-1.386-4.29v-12.8a5.9,5.9,0,0,1,1.364-4.29,5.247,5.247,0,0,1,3.916-1.386,6.289,6.289,0,0,1,2.772.506,3.8,3.8,0,0,1,1.518,1.276,4.748,4.748,0,0,1,.682,1.562,10.282,10.282,0,0,1,.22,1.364,1.361,1.361,0,0,0,.66,1.166,3.2,3.2,0,0,0,1.672.374,2.776,2.776,0,0,0,1.76-.462,2.49,2.49,0,0,0,.572-1.958,6.97,6.97,0,0,0-1.254-4.114,8.553,8.553,0,0,0-3.476-2.816,12.371,12.371,0,0,0-5.258-1.034,12.2,12.2,0,0,0-4.884.968,7.668,7.668,0,0,0-3.564,3.124,10.865,10.865,0,0,0-1.32,5.72v12.8a10.863,10.863,0,0,0,1.32,5.72,7.673,7.673,0,0,0,3.542,3.124,12.026,12.026,0,0,0,4.862.968A12.289,12.289,0,0,0,649.06,164.208Zm35.925-.088a9.6,9.6,0,0,0,3.344-3.256,7.976,7.976,0,0,0,1.254-4.268v-4.048a7.949,7.949,0,0,0-1.254-4.378,9.32,9.32,0,0,0-3.322-3.124,9.258,9.258,0,0,0-12.386,3.19,8.115,8.115,0,0,0-1.21,4.312V156.6a7.936,7.936,0,0,0,1.254,4.29,9.73,9.73,0,0,0,3.322,3.234,8.527,8.527,0,0,0,4.444,1.232A8.805,8.805,0,0,0,684.985,164.12Zm-6.754-3.52a4.808,4.808,0,0,1-1.606-1.738,4.627,4.627,0,0,1-.594-2.266v-4.048a4.429,4.429,0,0,1,.594-2.2,4.943,4.943,0,0,1,1.584-1.716,4.182,4.182,0,0,1,4.51,0,5.077,5.077,0,0,1,1.628,1.716,4.314,4.314,0,0,1,.616,2.2V156.6a4.506,4.506,0,0,1-.616,2.266,5.011,5.011,0,0,1-1.628,1.738A4.145,4.145,0,0,1,678.231,160.6Zm34.21,3.916a1.335,1.335,0,0,0,.682-1.056V133.232a1.239,1.239,0,0,0-.682-1.078,3.106,3.106,0,0,0-1.65-.418,2.964,2.964,0,0,0-1.65.418,1.248,1.248,0,0,0-.638,1.078V163.46a1.345,1.345,0,0,0,.638,1.056,2.652,2.652,0,0,0,1.65.484A2.776,2.776,0,0,0,712.441,164.516Zm24.727,0a1.332,1.332,0,0,0,.682-1.056V133.232a1.237,1.237,0,0,0-.682-1.078,3.106,3.106,0,0,0-1.65-.418,2.964,2.964,0,0,0-1.65.418,1.25,1.25,0,0,0-.638,1.078V163.46a1.347,1.347,0,0,0,.638,1.056,2.652,2.652,0,0,0,1.65.484A2.776,2.776,0,0,0,737.168,164.516Zm28.8-.22a13,13,0,0,0,2.772-2.376v1.54a1.331,1.331,0,0,0,.616,1.078,2.422,2.422,0,0,0,1.5.462,2.668,2.668,0,0,0,1.606-.462,1.323,1.323,0,0,0,.638-1.078V152.416a9.977,9.977,0,0,0-.88-4.18,7.175,7.175,0,0,0-2.816-3.146,9.722,9.722,0,0,0-5.192-1.21,12.854,12.854,0,0,0-3.036.374,8.912,8.912,0,0,0-2.574,1.012,1.768,1.768,0,0,0-1.034,1.43,3.119,3.119,0,0,0,.44,1.562,1.359,1.359,0,0,0,1.232.77,1.783,1.783,0,0,0,.968-0.352,6.407,6.407,0,0,1,1.408-.66,7.952,7.952,0,0,1,2.508-.308,3.875,3.875,0,0,1,3.938,2.53,6.092,6.092,0,0,1,.418,2.222v0.792h-1.936a24.159,24.159,0,0,0-5.346.528,7.116,7.116,0,0,0-3.63,1.892,6.394,6.394,0,0,0,.4,8.25,6.247,6.247,0,0,0,4.136,1.43A6.957,6.957,0,0,0,765.966,164.3Zm-4.246-3.146a2.684,2.684,0,0,1-.814-2.178,2.454,2.454,0,0,1,.9-2.09,5.012,5.012,0,0,1,2.4-.88,24.154,24.154,0,0,1,3.168-.2h1.1v1.628a3.512,3.512,0,0,1-.726,2.068,6.135,6.135,0,0,1-1.8,1.672,4.135,4.135,0,0,1-2.178.66A3.077,3.077,0,0,1,761.72,161.15ZM804.752,174.2a7.525,7.525,0,0,0,3.366-2.178,5.541,5.541,0,0,0,1.276-3.762,4.845,4.845,0,0,0-.968-3.19,6.009,6.009,0,0,0-2.486-1.76,15.181,15.181,0,0,0-3.234-.858q-1.716-.264-3.234-0.44a11.16,11.16,0,0,1-2.486-.528,1.217,1.217,0,0,1-.968-1.144,1.088,1.088,0,0,1,.242-0.726,2.528,2.528,0,0,1,.594-0.506,8.129,8.129,0,0,0,3.036.528,9.509,9.509,0,0,0,4.312-.946,7.209,7.209,0,0,0,2.948-2.618,6.856,6.856,0,0,0,1.056-3.74V151.1a7.454,7.454,0,0,0-.352-2.288,5.289,5.289,0,0,0-1.1-1.936,4.383,4.383,0,0,1,1.166-1.166q0.594-.374,1.034-0.594a1.421,1.421,0,0,0,.55-0.462,1.093,1.093,0,0,0,.2-0.638,1.576,1.576,0,0,0-.484-1.056,1.815,1.815,0,0,0-1.408-.528,2.123,2.123,0,0,0-1.386.66,6.76,6.76,0,0,0-1.43,2.288,8.225,8.225,0,0,0-2.31-1.1,10.276,10.276,0,0,0-7.084.528,6.733,6.733,0,0,0-3.894,6.292v1.232a7.208,7.208,0,0,0,.682,3.146,6.643,6.643,0,0,0,1.914,2.4,6.691,6.691,0,0,0-1.584,1.364,3.016,3.016,0,0,0-.616,1.98,2.734,2.734,0,0,0,.572,1.848,4.124,4.124,0,0,0,1.452,1.056,6.856,6.856,0,0,0-2.376,1.782,4.3,4.3,0,0,0-1.012,2.926,4.6,4.6,0,0,0,1.276,3.256,8.164,8.164,0,0,0,3.432,2.09,14.671,14.671,0,0,0,4.708.726A14.338,14.338,0,0,0,804.752,174.2Zm-8.228-3.3a2.908,2.908,0,0,1-1.386-2.552A2.7,2.7,0,0,1,796,166.3a5.842,5.842,0,0,1,2.09-1.254q1.056,0.132,2.222.264a13.184,13.184,0,0,1,2.222.44,4.177,4.177,0,0,1,1.716.924,2.23,2.23,0,0,1,.66,1.716,2.91,2.91,0,0,1-1.342,2.486,5.949,5.949,0,0,1-3.5.946A6.263,6.263,0,0,1,796.524,170.9Zm0.638-15.488a5.019,5.019,0,0,1-.968-3.124V151.1a4.767,4.767,0,0,1,.968-3.036,3.318,3.318,0,0,1,2.772-1.232,3.38,3.38,0,0,1,2.794,1.232,4.7,4.7,0,0,1,.99,3.036v1.232a4.827,4.827,0,0,1-.99,3.124A3.715,3.715,0,0,1,797.162,155.408Zm43.3,9.394a7.408,7.408,0,0,0,2.53-1.342,2.129,2.129,0,0,0,.9-1.452,2.165,2.165,0,0,0-.22-0.88,2.493,2.493,0,0,0-.616-0.836,1.409,1.409,0,0,0-.968-0.352,2.419,2.419,0,0,0-1.232.4,16.362,16.362,0,0,1-1.628.836,6.1,6.1,0,0,1-2.508.44,6.332,6.332,0,0,1-4.114-1.3,4.261,4.261,0,0,1-1.606-3.5V155.8h9.284a10.281,10.281,0,0,0,1.936-.176,2.33,2.33,0,0,0,1.5-.968,4.635,4.635,0,0,0,.572-2.64,7.543,7.543,0,0,0-1.21-4.224,8.4,8.4,0,0,0-3.19-2.882,9.27,9.27,0,0,0-4.356-1.034,9.157,9.157,0,0,0-4.576,1.166,9.384,9.384,0,0,0-3.322,3.1,7.692,7.692,0,0,0-1.254,4.268v4.18a8.028,8.028,0,0,0,1.32,4.6,8.88,8.88,0,0,0,3.608,3.058,12.037,12.037,0,0,0,5.28,1.1A12.162,12.162,0,0,0,840.458,164.8ZM831,151.536a3.794,3.794,0,0,1,.616-2.156,4.318,4.318,0,0,1,1.628-1.452,4.773,4.773,0,0,1,2.244-.528,4.723,4.723,0,0,1,2.288.55,4.011,4.011,0,0,1,1.584,1.54,4.2,4.2,0,0,1,.572,2.134,1.315,1.315,0,0,1-.33,1.056,2.221,2.221,0,0,1-1.3.264H831v-1.408Z" transform="translate(0 -0.563)"/>
  <path class="cls-2" d="M103.51,205c-14.7-9.557-28.672-19.159-43.187-27.84-6.921-4.139-14.792-6.769-22.4-9.642-7.784-2.941-12.445-8.123-14.832-16.171-2.55-8.6-6.575-16.767-8.987-25.4-2.446-8.752-3.5-17.885-5.542-26.764-2.381-10.348-5.185-20.6-7.776-30.9C0.439,66.9.257,65.474,0,64.066L1.132,63c2.4,1.734,5.575,2.975,7.039,5.3A116.876,116.876,0,0,1,17.3,85.857c3.617,8.761,6.5,17.824,9.809,26.715,5.132,13.783,16.49,21.782,27.809,29.779,0.3,0.212.914-.025,2.316-0.107-1.444-2.279-2.607-4.128-3.782-5.967-5.64-8.821-11.507-17.51-16.8-26.537-1.688-2.88-4.489-7.424-.673-9.894,3.676-2.379,6.565,1.9,8.984,4.467,9.006,9.544,17.561,19.536,26.87,28.765,5.137,5.092,11.3,9.2,17.249,13.4,8.829,6.232,11.976,15.2,12.82,25.363,0.251,3.02.039,6.078,0.039,9.119l1.641,0.022c0.414-3.83.791-7.665,1.247-11.49,1.387-11.627,6.755-19.864,17.223-26.285,14.319-8.784,26.339-20.755,37.052-33.878a58.947,58.947,0,0,1,8.461-8.395c1.14-.927,3.9-1.336,4.851-0.6,0.985,0.762,1.436,3.592.8,4.854-3.489,6.971-7.078,13.933-11.234,20.515-3.186,5.045-7.277,9.513-10.918,14.274-0.372.486-.422,1.22-0.985,2.969a27.112,27.112,0,0,0,4.406-1.854c12.93-8.9,24.418-18.823,29.118-34.882,2.7-9.227,6.711-18.088,10.427-26.99,2.756-6.6,7.052-11.956,14.967-15.2-0.311,2.277-.163,3.907-0.765,5.18-6.3,13.327-8.08,27.728-10.366,42.048a86.223,86.223,0,0,1-4.137,15.366c-3.145,8.769-7,17.284-10.058,26.08-2.6,7.493-7.063,12.769-14.749,14.949-16.176,4.587-30.644,12.908-44.9,21.4C116.385,193.588,109.847,199.986,103.51,205Z" transform="translate(0 -0.563)"/>
</svg>
