<svg id="butterfly" xmlns="http://www.w3.org/2000/svg" width="158.438" height="52" viewBox="0 0 158.438 52">
  <defs>
    <style>
      .cls-1 {
        fill: #ffb400;
      }

      .cls-1, .cls-2 {
        fill-rule: evenodd;
      }
    </style>
  </defs>
  <path class="cls-1" d="M162.908,30.665c1.147-.5,3.111-0.413,7.256,2.42,3.2,2.185,4.1,2.979,3.837,3.448-0.364.648-1.486-.263-5.315-2.733-3.047-1.966-4.385-1.065-5.393-1.146A1.027,1.027,0,0,1,162.908,30.665Zm-5.4-2.8c0.016-.155.1-0.353,0.727-0.422a4.086,4.086,0,0,1,3.174,1.435c1.073,1.023,1.294,1.392,1.206,1.487a3.078,3.078,0,0,1-1.141-.947,3.461,3.461,0,0,0-2.905-1.153C157.739,28.36,157.481,28.108,157.505,27.868Zm-0.617,2.119c-0.033-.145-0.018-0.35.53-0.6a3.911,3.911,0,0,1,3.314.338c1.283,0.6,1.6.87,1.545,0.982a2.937,2.937,0,0,1-1.322-.513,3.312,3.312,0,0,0-2.984-.165C157.249,30.362,156.939,30.212,156.888,29.987Zm10.825-4.061a139.928,139.928,0,0,1,.906-22.318c0.674-6.379,7.375-2,13.018,4.71,4.533,5.391,1.845,8.8-.777,12.2s-5.561,6.064-5.3,6.724c0.367,0.91,7.355-3.762,9.767-3.356,2.027,0.341,3.731,9.056,1.352,11.064-1.511,1.275-7.186.318-11.193-.992C171.742,32.727,167.8,31.753,167.713,25.926Zm-0.781.924a138.736,138.736,0,0,1-.638-21.606c-3.833-1.012-6.446-.306-5.54,3.419,2.659,10.933,3.02,12.749,5.248,18.707a9.719,9.719,0,0,0,2.239,3.509A7.882,7.882,0,0,1,166.932,26.849Zm1.8,3.15-0.054-.095Z" transform="translate(-29.406 -0.469)"/>
  <path class="cls-2" d="M34.03,24.147v5.4A5.71,5.71,0,0,1,36.2,27.455a6.117,6.117,0,0,1,2.989-.675,6.33,6.33,0,0,1,5.232,2.633,10.822,10.822,0,0,1,2.038,6.818,10.819,10.819,0,0,1-2.038,6.818,5.7,5.7,0,0,1-2.751,1.857,10.9,10.9,0,0,1-3.431.573A11.451,11.451,0,0,1,32.2,43.793Q29.408,42.1,29.41,37.312V21.851h2.31a2.233,2.233,0,0,1,1.63.676A2.206,2.206,0,0,1,34.03,24.147Zm7.745,11.882a6.165,6.165,0,0,0-1.019-3.781A3.251,3.251,0,0,0,37.97,30.83a3.442,3.442,0,0,0-2.921,1.351,6.473,6.473,0,0,0-1.019,3.849,7,7,0,0,0,.951,4.118,3.314,3.314,0,0,0,2.853,1.418,3.382,3.382,0,0,0,2.922-1.418A7.008,7.008,0,0,0,41.775,36.029ZM64.88,27.185V37.716q0,4.794-2.514,6.279a10.622,10.622,0,0,1-5.5,1.485,10.971,10.971,0,0,1-5.333-1.62q-2.412-1.485-2.412-6.144V27.185h4.756V38.662a2.809,2.809,0,0,0,.951,2.362A3.427,3.427,0,0,0,57,41.767a3.57,3.57,0,0,0,2.208-.743,2.767,2.767,0,0,0,.985-2.362V29.48a2.261,2.261,0,0,1,.645-1.62,2.2,2.2,0,0,1,1.665-.675H64.88Zm10.6,17.958a35.691,35.691,0,0,1-4.858-.067q-2.616-.2-2.616-3.308V21.918h2.446a2.161,2.161,0,0,1,1.563.676,2.207,2.207,0,0,1,.679,1.62v3.038h2.786V28.2a2.174,2.174,0,0,1-.679,1.654,2.29,2.29,0,0,1-1.63.641H72.7v9.992a1.117,1.117,0,0,0,1.359,1.148h1.427v3.51Zm10.264,0a35.688,35.688,0,0,1-4.857-.067q-2.617-.2-2.615-3.308V21.918h2.445a2.159,2.159,0,0,1,1.563.676,2.2,2.2,0,0,1,.679,1.62v3.038h2.785V28.2a2.175,2.175,0,0,1-.679,1.654,2.291,2.291,0,0,1-1.631.641H82.963v9.992a1.117,1.117,0,0,0,1.359,1.148h1.426v3.51Zm14.817-5.536h3.4a7.375,7.375,0,0,1-2.853,4.322,8.7,8.7,0,0,1-5.3,1.552,7.591,7.591,0,0,1-6.047-2.5q-2.175-2.43-2.174-6.953A9.972,9.972,0,0,1,89.7,29.278a7.592,7.592,0,0,1,6.047-2.5,8.168,8.168,0,0,1,6.319,2.431,10.249,10.249,0,0,1,2.173,6.954v0.743a1.174,1.174,0,0,1-.067.472H92.413a4.626,4.626,0,0,0,1.019,3.106,3.218,3.218,0,0,0,2.649,1.08,3.862,3.862,0,0,0,1.97-.473,0.944,0.944,0,0,0,.374-0.237l0.373-.371a1.475,1.475,0,0,1,.51-0.54A2.037,2.037,0,0,1,100.566,39.606Zm-8.153-5.265h6.93a4.357,4.357,0,0,0-.952-2.7,3.271,3.271,0,0,0-2.514-.946,3.32,3.32,0,0,0-2.445.946A3.858,3.858,0,0,0,92.413,34.341Zm14.408,10.8V36.433a11.052,11.052,0,0,1,.782-4.422,7.323,7.323,0,0,1,2.14-2.869,8.434,8.434,0,0,1,3.024-1.486,13.542,13.542,0,0,1,3.567-.472h0.678v4.793H115.45a4,4,0,0,0-2.922.945,4.049,4.049,0,0,0-.95,2.971v9.248h-4.757Zm12.508,0v-18.5A4.774,4.774,0,0,1,120.62,23a5.755,5.755,0,0,1,4.008-1.148,7.124,7.124,0,0,1,1.087.067,7.575,7.575,0,0,1,1.154.068V25.7h-1.222a2.566,2.566,0,0,0-1.36.27,1.338,1.338,0,0,0-.339,1.08v1.215h2.921v1.013a2.174,2.174,0,0,1-.679,1.653,2.207,2.207,0,0,1-1.562.642h-0.68V45.142h-4.619Zm9.924-23.224H131.7a2.3,2.3,0,0,1,1.632.642,2.1,2.1,0,0,1,.678,1.586v21h-4.756V21.918Zm9.993,29.571V47.775h1.291a3.287,3.287,0,0,0,2.141-.641,1.744,1.744,0,0,0,.305-2.059l-6.318-17.89H141.9l3.669,12.692L148.758,28.8a2,2,0,0,1,2.175-1.62h3.26l-6.93,20.456a6.9,6.9,0,0,1-2.038,3.173,7.51,7.51,0,0,1-4.009.811h-0.951a2.464,2.464,0,0,0-.509-0.1A4.691,4.691,0,0,0,139.246,51.489Z" transform="translate(-29.406 -0.469)"/>
  <path class="cls-2" d="M59.913,58.157a1.788,1.788,0,0,0-1.293-.444,2.06,2.06,0,0,0-1.043.256,2.3,2.3,0,0,0-.745.675,3.093,3.093,0,0,0-.449.951,3.965,3.965,0,0,0,0,2.174,3.1,3.1,0,0,0,.449.952,2.3,2.3,0,0,0,.745.674,2.055,2.055,0,0,0,1.043.257,1.809,1.809,0,0,0,.725-0.148,1.949,1.949,0,0,0,.607-0.413,2.187,2.187,0,0,0,.436-0.628,2.355,2.355,0,0,0,.211-0.8H61.43a3.248,3.248,0,0,1-.91,1.978,2.635,2.635,0,0,1-1.9.708,3.138,3.138,0,0,1-1.379-.289,2.945,2.945,0,0,1-1.01-.79,3.466,3.466,0,0,1-.62-1.167,4.912,4.912,0,0,1,0-2.849,3.481,3.481,0,0,1,.62-1.167,3.016,3.016,0,0,1,1.01-.8A3.074,3.074,0,0,1,58.62,57a2.916,2.916,0,0,1,1.854.594,2.556,2.556,0,0,1,.9,1.8H60.546A2.362,2.362,0,0,0,59.913,58.157Zm3.444-.958v1.634h0.026a2.664,2.664,0,0,1,.983-1.31,2.531,2.531,0,0,1,1.59-.418v0.85a2.455,2.455,0,0,0-1.029.155,2.314,2.314,0,0,0-.8.52,2.358,2.358,0,0,0-.521.8,2.74,2.74,0,0,0-.184,1.019v3.713H62.592V57.2h0.765Zm3.767,4.664a2.64,2.64,0,0,0,.4.884,2.314,2.314,0,0,0,.7.647,1.915,1.915,0,0,0,1.016.257,1.992,1.992,0,0,0,1.425-.486,2.567,2.567,0,0,0,.712-1.3H72.21a3.422,3.422,0,0,1-.97,1.836,2.85,2.85,0,0,1-2,.647,3.116,3.116,0,0,1-1.392-.289,2.582,2.582,0,0,1-.957-0.8,3.506,3.506,0,0,1-.548-1.175,5.467,5.467,0,0,1-.177-1.411,5.182,5.182,0,0,1,.177-1.35,3.68,3.68,0,0,1,.548-1.181,2.775,2.775,0,0,1,.957-0.837A2.893,2.893,0,0,1,69.242,57a2.739,2.739,0,0,1,1.4.337,2.819,2.819,0,0,1,.944.884,3.72,3.72,0,0,1,.521,1.255,5.639,5.639,0,0,1,.132,1.438H67A3.839,3.839,0,0,0,67.124,61.863Zm4.117-2.6a2.585,2.585,0,0,0-.429-0.789,2.151,2.151,0,0,0-.673-0.554,1.9,1.9,0,0,0-.9-0.208,1.924,1.924,0,0,0-.91.208,2.146,2.146,0,0,0-.673.554,2.777,2.777,0,0,0-.442.8A3.952,3.952,0,0,0,67,60.2h4.407A3.134,3.134,0,0,0,71.241,59.264Zm2.29-.985A1.976,1.976,0,0,1,74.1,57.55a2.4,2.4,0,0,1,.851-0.419A4.083,4.083,0,0,1,76.037,57a4.694,4.694,0,0,1,.9.087,2.147,2.147,0,0,1,.805.331,1.786,1.786,0,0,1,.58.682,2.506,2.506,0,0,1,.224,1.141v3.7a0.443,0.443,0,0,0,.488.514,0.615,0.615,0,0,0,.264-0.055V64.11c-0.1.019-.183,0.032-0.257,0.04a2.351,2.351,0,0,1-.284.014,1.227,1.227,0,0,1-.508-0.088,0.687,0.687,0,0,1-.3-0.25,0.948,0.948,0,0,1-.138-0.384,3.375,3.375,0,0,1-.033-0.493H77.752a5.816,5.816,0,0,1-.455.6,2.26,2.26,0,0,1-.514.438,2.323,2.323,0,0,1-.647.27,3.472,3.472,0,0,1-.864.094,3.333,3.333,0,0,1-.891-0.114,1.963,1.963,0,0,1-.726-0.364,1.74,1.74,0,0,1-.488-0.635,2.146,2.146,0,0,1-.178-0.911,1.827,1.827,0,0,1,.317-1.14,1.994,1.994,0,0,1,.838-0.628,4.731,4.731,0,0,1,1.174-.3q0.654-.087,1.326-0.168c0.176-.018.33-0.04,0.462-0.067a0.805,0.805,0,0,0,.33-0.142,0.654,0.654,0,0,0,.2-0.277,1.228,1.228,0,0,0,.072-0.46,1.586,1.586,0,0,0-.138-0.709A1.114,1.114,0,0,0,77.192,58a1.52,1.52,0,0,0-.568-0.223,3.777,3.777,0,0,0-.692-0.06,2.061,2.061,0,0,0-1.293.385,1.52,1.52,0,0,0-.528,1.235H73.279A2.87,2.87,0,0,1,73.531,58.279Zm4.156,2.079a0.48,0.48,0,0,1-.3.216,3.251,3.251,0,0,1-.4.094q-0.528.095-1.089,0.169a5.789,5.789,0,0,0-1.022.223,2,2,0,0,0-.759.425,1.029,1.029,0,0,0-.3.79,1.26,1.26,0,0,0,.125.574,1.368,1.368,0,0,0,.336.431,1.46,1.46,0,0,0,.488.278,1.751,1.751,0,0,0,.568.094,2.8,2.8,0,0,0,.911-0.148,2.239,2.239,0,0,0,.759-0.432,2.09,2.09,0,0,0,.514-0.689,2.13,2.13,0,0,0,.191-0.919V60.358H77.686ZM82.912,57.2v0.716H81.526v4.7a1.557,1.557,0,0,0,.112.655,0.605,0.605,0,0,0,.561.263,6.191,6.191,0,0,0,.713-0.041v0.715c-0.124,0-.246,0-0.369.013s-0.247.013-.37,0.013a1.615,1.615,0,0,1-1.161-.331,1.691,1.691,0,0,1-.317-1.221V57.915H79.507V57.2h1.188V55.106h0.831V57.2h1.386Zm2.045-2.672V55.89H84.125V54.526h0.831Zm0,2.672v6.966H84.125V57.2h0.831Zm1.755,0,2.138,6.115h0.026L90.987,57.2h0.858L89.3,64.165H88.414L85.788,57.2h0.924Zm6.565,4.664a2.637,2.637,0,0,0,.4.884,2.305,2.305,0,0,0,.7.647,1.911,1.911,0,0,0,1.016.257,1.991,1.991,0,0,0,1.425-.486,2.57,2.57,0,0,0,.713-1.3h0.831a3.417,3.417,0,0,1-.97,1.836,2.849,2.849,0,0,1-2,.647A3.116,3.116,0,0,1,94,64.063a2.579,2.579,0,0,1-.957-0.8,3.492,3.492,0,0,1-.548-1.175,5.458,5.458,0,0,1-.178-1.411,5.174,5.174,0,0,1,.178-1.35,3.665,3.665,0,0,1,.548-1.181A2.771,2.771,0,0,1,94,57.313,2.893,2.893,0,0,1,95.394,57a2.739,2.739,0,0,1,1.4.337,2.814,2.814,0,0,1,.943.884,3.708,3.708,0,0,1,.522,1.255,5.639,5.639,0,0,1,.132,1.438H93.151A3.839,3.839,0,0,0,93.276,61.863Zm4.117-2.6a2.582,2.582,0,0,0-.429-0.789,2.145,2.145,0,0,0-.673-0.554,1.9,1.9,0,0,0-.9-0.208,1.925,1.925,0,0,0-.91.208,2.151,2.151,0,0,0-.673.554,2.781,2.781,0,0,0-.442.8,3.947,3.947,0,0,0-.218.925h4.407A3.151,3.151,0,0,0,97.393,59.264Zm6.617-4.738v4h0.026a2.01,2.01,0,0,1,.377-0.661,2.381,2.381,0,0,1,.561-0.48,2.443,2.443,0,0,1,.685-0.29A2.96,2.96,0,0,1,106.4,57a2.911,2.911,0,0,1,1.353.3,2.818,2.818,0,0,1,.957.8,3.46,3.46,0,0,1,.567,1.174,5.5,5.5,0,0,1,0,2.821,3.462,3.462,0,0,1-.567,1.175,2.746,2.746,0,0,1-.957.8,2.972,2.972,0,0,1-1.353.289,2.825,2.825,0,0,1-1.484-.391,2.227,2.227,0,0,1-.944-1.12h-0.026v1.323h-0.765V54.526h0.831Zm4.493,5.082a3.019,3.019,0,0,0-.4-0.951,2.187,2.187,0,0,0-.693-0.682,1.877,1.877,0,0,0-1.016-.263,2.188,2.188,0,0,0-1.115.263,2.228,2.228,0,0,0-.739.682,2.844,2.844,0,0,0-.409.951,4.67,4.67,0,0,0,0,2.147,2.847,2.847,0,0,0,.409.951,2.234,2.234,0,0,0,.739.682,2.19,2.19,0,0,0,1.115.263,1.878,1.878,0,0,0,1.016-.263,2.194,2.194,0,0,0,.693-0.682,3.023,3.023,0,0,0,.4-0.951A4.67,4.67,0,0,0,108.5,59.608Zm2.863,2.255a2.648,2.648,0,0,0,.4.884,2.309,2.309,0,0,0,.7.647,1.913,1.913,0,0,0,1.016.257,1.993,1.993,0,0,0,1.425-.486,2.577,2.577,0,0,0,.713-1.3h0.831a3.422,3.422,0,0,1-.971,1.836,2.845,2.845,0,0,1-2,.647,3.118,3.118,0,0,1-1.393-.289,2.571,2.571,0,0,1-.955-0.8,3.468,3.468,0,0,1-.548-1.175,5.436,5.436,0,0,1-.179-1.411,5.154,5.154,0,0,1,.179-1.35,3.638,3.638,0,0,1,.548-1.181,2.762,2.762,0,0,1,.955-0.837A2.894,2.894,0,0,1,113.484,57a2.738,2.738,0,0,1,1.4.337,2.817,2.817,0,0,1,.944.884,3.714,3.714,0,0,1,.521,1.255,5.594,5.594,0,0,1,.132,1.438H111.24A3.841,3.841,0,0,0,111.366,61.863Zm4.116-2.6a2.581,2.581,0,0,0-.428-0.789,2.146,2.146,0,0,0-.673-0.554,1.9,1.9,0,0,0-.9-0.208,1.926,1.926,0,0,0-.911.208,2.157,2.157,0,0,0-.673.554,2.794,2.794,0,0,0-.442.8,4.019,4.019,0,0,0-.218.925h4.407A3.081,3.081,0,0,0,115.482,59.264Zm2.29-.985a1.985,1.985,0,0,1,.574-0.729,2.4,2.4,0,0,1,.851-0.419A4.091,4.091,0,0,1,120.279,57a4.685,4.685,0,0,1,.9.087,2.142,2.142,0,0,1,.806.331,1.784,1.784,0,0,1,.58.682,2.5,2.5,0,0,1,.225,1.141v3.7a0.443,0.443,0,0,0,.488.514,0.61,0.61,0,0,0,.263-0.055V64.11c-0.1.019-.182,0.032-0.257,0.04a2.355,2.355,0,0,1-.284.014,1.234,1.234,0,0,1-.508-0.088,0.686,0.686,0,0,1-.3-0.25,0.942,0.942,0,0,1-.139-0.384,3.376,3.376,0,0,1-.033-0.493H122a5.976,5.976,0,0,1-.455.6,2.283,2.283,0,0,1-.515.438,2.316,2.316,0,0,1-.647.27,3.469,3.469,0,0,1-.864.094,3.331,3.331,0,0,1-.891-0.114,1.953,1.953,0,0,1-.725-0.364,1.732,1.732,0,0,1-.489-0.635,2.159,2.159,0,0,1-.178-0.911,1.824,1.824,0,0,1,.317-1.14,1.991,1.991,0,0,1,.838-0.628,4.732,4.732,0,0,1,1.174-.3q0.654-.087,1.326-0.168,0.264-.027.462-0.067a0.808,0.808,0,0,0,.33-0.142,0.649,0.649,0,0,0,.2-0.277,1.209,1.209,0,0,0,.073-0.46,1.574,1.574,0,0,0-.139-0.709A1.108,1.108,0,0,0,121.434,58a1.523,1.523,0,0,0-.567-0.223,3.788,3.788,0,0,0-.693-0.06,2.059,2.059,0,0,0-1.293.385,1.521,1.521,0,0,0-.528,1.235h-0.831A2.89,2.89,0,0,1,117.772,58.279Zm4.156,2.079a0.478,0.478,0,0,1-.3.216,3.214,3.214,0,0,1-.4.094c-0.352.063-.714,0.119-1.089,0.169a5.823,5.823,0,0,0-1.022.223,2,2,0,0,0-.759.425,1.032,1.032,0,0,0-.3.79,1.255,1.255,0,0,0,.125.574,1.373,1.373,0,0,0,.336.431,1.452,1.452,0,0,0,.489.278,1.745,1.745,0,0,0,.567.094,2.813,2.813,0,0,0,.911-0.148,2.233,2.233,0,0,0,.758-0.432,2.088,2.088,0,0,0,.515-0.689,2.133,2.133,0,0,0,.191-0.919V60.358h-0.027Zm7.271,3.807V62.91h-0.026a2.4,2.4,0,0,1-.957,1.073,2.683,2.683,0,0,1-1.392.37,2.959,2.959,0,0,1-1.1-.181,1.835,1.835,0,0,1-.74-0.52,2.11,2.11,0,0,1-.415-0.823,4.183,4.183,0,0,1-.132-1.106V57.2h0.831v4.536a2.293,2.293,0,0,0,.429,1.431,2.1,2.1,0,0,0,2.316.25,1.972,1.972,0,0,0,.633-0.627,2.866,2.866,0,0,0,.369-0.9,4.463,4.463,0,0,0,.119-1.032V57.2h0.832v6.966H129.2Zm5.04-6.966v0.716h-1.385v4.7a1.554,1.554,0,0,0,.112.655,0.606,0.606,0,0,0,.561.263,6.18,6.18,0,0,0,.712-0.041v0.715q-0.184,0-.369.013c-0.123.009-.247,0.013-0.369,0.013a1.616,1.616,0,0,1-1.162-.331,1.7,1.7,0,0,1-.317-1.221V57.915h-1.187V57.2h1.187V55.106h0.832V57.2h1.385Zm1.32,0,2.243,5.94,2.1-5.94h0.831l-2.956,8.019a7.665,7.665,0,0,1-.343.736,1.684,1.684,0,0,1-.349.46,1.159,1.159,0,0,1-.449.243,2.412,2.412,0,0,1-.653.074l-0.389-.02a0.811,0.811,0,0,1-.244-0.047V65.946c0.1,0.019.191,0.034,0.284,0.047a1.85,1.85,0,0,0,.283.021,1.111,1.111,0,0,0,.455-0.08,0.961,0.961,0,0,0,.31-0.223,1.277,1.277,0,0,0,.225-0.344c0.062-.136.127-0.284,0.2-0.446l0.29-.783L134.675,57.2h0.884Z" transform="translate(-29.406 -0.469)"/>
</svg>
