<svg id="corporate" xmlns="http://www.w3.org/2000/svg" width="181.313" height="52" viewBox="0 0 181.313 52">
  <defs>
    <style>
      .cls-1 {
        fill: #25b3ef;
      }

      .cls-1, .cls-2 {
        fill-rule: evenodd;
      }

      .cls-2 {
        fill: #303030;
      }
    </style>
  </defs>
  <path class="cls-1" d="M48.365,52.1a14.312,14.312,0,0,1-5.583-10.677L42.773,17.962l0-.072a8.745,8.745,0,0,0-17.48.412V35.638h6.148V18.3a2.6,2.6,0,0,1,4.429-1.837,2.665,2.665,0,0,1,.538.777,1.358,1.358,0,0,1,.213.794l0.007,0.07q0,11.56,0,23.12H19.7V18.3a14.337,14.337,0,0,1,28.657-.68l0.01,0.2V52.1m11.189,0a14.316,14.316,0,0,1-5.5-9.654V17.684l-0.017-.335A20.021,20.021,0,0,0,42.438.138,14.328,14.328,0,0,1,59.544,13.511l0.01,0.2V52.1" transform="translate(-19.688)"/>
  <path id="Corporate-2" data-name="Corporate" class="cls-2" d="M79.335,40.258h3.24a7.89,7.89,0,0,0,4.02-1.005,6.883,6.883,0,0,0,2.7-2.85,9.135,9.135,0,0,0,.96-4.275h-4.08a4.961,4.961,0,0,1-1,3.24,3.2,3.2,0,0,1-2.595,1.23h-3.24a3.171,3.171,0,0,1-2.61-1.245,5.073,5.073,0,0,1-.99-3.255v-5.16a4.972,4.972,0,0,1,1.02-3.255,3.317,3.317,0,0,1,2.7-1.245h3.18a3.192,3.192,0,0,1,2.52,1.1,4.234,4.234,0,0,1,.96,2.895h4.08a8.206,8.206,0,0,0-.945-4.005,6.728,6.728,0,0,0-2.655-2.685,7.954,7.954,0,0,0-3.96-.96h-3.18a8.363,8.363,0,0,0-4.125.99,6.84,6.84,0,0,0-2.76,2.805,8.707,8.707,0,0,0-.975,4.185v5.52a8.812,8.812,0,0,0,.96,4.185,6.794,6.794,0,0,0,2.715,2.805,8.131,8.131,0,0,0,4.065.99h0Zm17.67,0h2.7a7.384,7.384,0,0,0,3.375-.735,5.438,5.438,0,0,0,2.265-2.085,5.945,5.945,0,0,0,.81-3.12v-3.51a6.027,6.027,0,0,0-.81-3.135,5.51,5.51,0,0,0-2.265-2.115,7.2,7.2,0,0,0-3.345-.75h-2.7a7.2,7.2,0,0,0-3.345.75,5.509,5.509,0,0,0-2.265,2.115,6.027,6.027,0,0,0-.81,3.135v3.51a6.03,6.03,0,0,0,.8,3.12,5.337,5.337,0,0,0,2.25,2.085A7.314,7.314,0,0,0,97,40.258h0Zm0.06-3.51a2.152,2.152,0,0,1-1.71-.765,2.944,2.944,0,0,1-.66-1.995v-2.91a2.945,2.945,0,0,1,.66-2,2.185,2.185,0,0,1,1.74-.765h2.58a2.186,2.186,0,0,1,1.74.765,2.946,2.946,0,0,1,.66,2v2.91a2.945,2.945,0,0,1-.66,1.995,2.219,2.219,0,0,1-1.77.765h-2.58Zm10.47,3.27h4.08v-8.07a3.278,3.278,0,0,1,.99-2.46,3.551,3.551,0,0,1,2.58-.96h2.04v-3.54h-2.04a4.775,4.775,0,0,0-2.235.555,4.249,4.249,0,0,0-1.635,1.425v-1.92h-3.78v14.97Zm9.99,6h4.08v-7.2a4.663,4.663,0,0,0,1.515,1.05,4.267,4.267,0,0,0,1.725.39h1.95a6.12,6.12,0,0,0,3.12-.78,5.379,5.379,0,0,0,2.1-2.2,6.948,6.948,0,0,0,.75-3.285v-3.36a6.027,6.027,0,0,0-.75-3.03,5.213,5.213,0,0,0-2.13-2.055,6.665,6.665,0,0,0-3.18-.735h-1.89a4.1,4.1,0,0,0-1.9.51,4.7,4.7,0,0,0-1.605,1.35v-1.62h-3.78v20.97Zm6.87-9.27a2.479,2.479,0,0,1-1.875-.81,3.593,3.593,0,0,1-.915-2.13v-2.97a4.094,4.094,0,0,1,1.14-1.815,2.435,2.435,0,0,1,1.65-.7h1.83a2.332,2.332,0,0,1,1.785.72,2.652,2.652,0,0,1,.675,1.89v2.76a3.491,3.491,0,0,1-.66,2.22,2.135,2.135,0,0,1-1.77.84h-1.86Zm15.54,3.51h2.7a7.39,7.39,0,0,0,3.375-.735,5.444,5.444,0,0,0,2.265-2.085,5.945,5.945,0,0,0,.81-3.12v-3.51a6.027,6.027,0,0,0-.81-3.135,5.517,5.517,0,0,0-2.265-2.115,7.206,7.206,0,0,0-3.345-.75h-2.7a7.2,7.2,0,0,0-3.345.75,5.5,5.5,0,0,0-2.265,2.115,6.027,6.027,0,0,0-.81,3.135v3.51a6.022,6.022,0,0,0,.795,3.12,5.328,5.328,0,0,0,2.25,2.085,7.312,7.312,0,0,0,3.345.735h0Zm0.06-3.51a2.15,2.15,0,0,1-1.71-.765,2.94,2.94,0,0,1-.66-1.995v-2.91a2.941,2.941,0,0,1,.66-2,2.184,2.184,0,0,1,1.74-.765h2.58a2.187,2.187,0,0,1,1.74.765,2.951,2.951,0,0,1,.66,2v2.91a2.95,2.95,0,0,1-.66,1.995,2.222,2.222,0,0,1-1.77.765h-2.58Zm10.469,3.27h4.08v-8.07a3.278,3.278,0,0,1,.99-2.46,3.551,3.551,0,0,1,2.58-.96h2.04v-3.54h-2.04a4.775,4.775,0,0,0-2.235.555,4.249,4.249,0,0,0-1.635,1.425v-1.92h-3.78v14.97Zm14.251,0.24h1.86a4.413,4.413,0,0,0,2.07-.555,5.412,5.412,0,0,0,1.77-1.485v1.8h3.78V29.908a4.647,4.647,0,0,0-1.62-3.705,6.3,6.3,0,0,0-4.26-1.395h-2.58a6.376,6.376,0,0,0-4.215,1.335,4.357,4.357,0,0,0-1.605,3.525h3.96a1.252,1.252,0,0,1,.51-1.05,2.163,2.163,0,0,1,1.35-.39h2.58a1.829,1.829,0,0,1,1.305.465,1.591,1.591,0,0,1,.5,1.215v1.56a8.038,8.038,0,0,0-1.65-.57,7.447,7.447,0,0,0-1.68-.21h-1.83a6.316,6.316,0,0,0-3.96,1.155,3.655,3.655,0,0,0-1.5,3.045V36a3.785,3.785,0,0,0,1.44,3.09,5.808,5.808,0,0,0,3.78,1.17h0Zm0.54-3.12a2.169,2.169,0,0,1-1.3-.36,1.1,1.1,0,0,1-.5-0.93v-0.78a1.167,1.167,0,0,1,.45-0.96,1.816,1.816,0,0,1,1.17-.36h1.89a7.614,7.614,0,0,1,1.815.21,3.706,3.706,0,0,1,1.335.57v0.51a3.261,3.261,0,0,1-1.26,1.53,3.535,3.535,0,0,1-1.98.57h-1.62Zm17.28,2.88h2.88v-3.48h-2.58a1.215,1.215,0,0,1-1-.39,1.949,1.949,0,0,1-.315-1.23v-6.39h3.9v-3.48h-3.9v-4.53h-3.96v4.53h-2.76v3.48h2.64V35.1a4.99,4.99,0,0,0,1.23,3.72,5.368,5.368,0,0,0,3.87,1.2h0Zm9.6,0.24h2.28a8.354,8.354,0,0,0,3.345-.63,5.183,5.183,0,0,0,2.265-1.8,4.577,4.577,0,0,0,.81-2.67h-4.02a1.435,1.435,0,0,1-.645,1.215,2.836,2.836,0,0,1-1.7.465h-2.34a2.376,2.376,0,0,1-1.71-.6,2.093,2.093,0,0,1-.63-1.59v-0.72h11.1v-3.18a5.624,5.624,0,0,0-1.74-4.32,6.51,6.51,0,0,0-4.62-1.62h-2.4a7.2,7.2,0,0,0-3.345.75,5.534,5.534,0,0,0-2.265,2.1,5.946,5.946,0,0,0-.81,3.12v3.87a5.336,5.336,0,0,0,.81,2.925,5.4,5.4,0,0,0,2.265,1.98,7.582,7.582,0,0,0,3.345.705h0Zm-2.4-9.27V30.9a2.884,2.884,0,0,1,.66-1.98,2.205,2.205,0,0,1,1.74-.75h2.43a2.145,2.145,0,0,1,1.68.705,2.709,2.709,0,0,1,.63,1.875v0.24h-7.14Z" transform="translate(-19.688)"/>
  <path id="Bussiness" class="cls-1" d="M144.441,16.018h4.634a3.37,3.37,0,0,0,2.135-.63,2.286,2.286,0,0,0,.8-1.918,2.485,2.485,0,0,0-.5-1.624,2.387,2.387,0,0,0-1.358-.812V10.978a2.291,2.291,0,0,0,1.148-.812,2.247,2.247,0,0,0,.448-1.4,2.159,2.159,0,0,0-.735-1.708,2.838,2.838,0,0,0-1.939-.644h-4.634v9.6Zm1.33-5.5V7.576h3.15A1.525,1.525,0,0,1,150,7.94a1.421,1.421,0,0,1,.392,1.092,1.412,1.412,0,0,1-.434,1.071,1.6,1.6,0,0,1-1.148.413h-3.038Zm0,4.34V11.678h3.178a1.474,1.474,0,0,1,1.708,1.624,1.4,1.4,0,0,1-1.61,1.554h-3.276Zm9.394,1.33a2.819,2.819,0,0,0,2.478-1.162h0.1l0.14,0.994h0.938V8.654h-1.232v4.354a2.373,2.373,0,0,1-.266,1.148,1.881,1.881,0,0,1-.714.749,1.924,1.924,0,0,1-.98.259,1.67,1.67,0,0,1-1.134-.343A1.57,1.57,0,0,1,154.1,13.6V8.654h-1.232V13.68a2.617,2.617,0,0,0,.595,1.911,2.3,2.3,0,0,0,1.7.6h0Zm7.35,0a3.758,3.758,0,0,0,2.177-.567,1.932,1.932,0,0,0,.819-1.7,1.718,1.718,0,0,0-.385-1.169,2.4,2.4,0,0,0-.931-0.658,12.283,12.283,0,0,0-1.414-.441,10.126,10.126,0,0,1-.98-0.28,1.784,1.784,0,0,1-.588-0.336,0.677,0.677,0,0,1-.238-0.532,0.909,0.909,0,0,1,.336-0.693,1.773,1.773,0,0,1,1.176-.3,1.924,1.924,0,0,1,1.239.322,1.017,1.017,0,0,1,.385.812v0.126h1.2l0.014-.266a1.743,1.743,0,0,0-.315-1.015,2.165,2.165,0,0,0-.931-0.728,4.186,4.186,0,0,0-3.591.294,1.789,1.789,0,0,0-.791,1.533,1.578,1.578,0,0,0,.357,1.071,2.268,2.268,0,0,0,.868.623,10.406,10.406,0,0,0,1.323.42,10.273,10.273,0,0,1,1.064.315,1.881,1.881,0,0,1,.658.406,0.941,0.941,0,0,1-.2,1.47,2.232,2.232,0,0,1-1.183.287,2.468,2.468,0,0,1-1.344-.329,1.09,1.09,0,0,1-.518-0.987v-0.14h-1.218c0,0.01,0,.035-0.007.077s-0.007.119-.007,0.231a1.9,1.9,0,0,0,.322,1.064,2.231,2.231,0,0,0,1,.791,4.2,4.2,0,0,0,1.7.3h0Zm6.3,0a3.758,3.758,0,0,0,2.177-.567,1.932,1.932,0,0,0,.819-1.7,1.718,1.718,0,0,0-.385-1.169,2.4,2.4,0,0,0-.931-0.658,12.283,12.283,0,0,0-1.414-.441,10.126,10.126,0,0,1-.98-0.28,1.784,1.784,0,0,1-.588-0.336,0.677,0.677,0,0,1-.238-0.532,0.909,0.909,0,0,1,.336-0.693,1.773,1.773,0,0,1,1.176-.3,1.924,1.924,0,0,1,1.239.322,1.017,1.017,0,0,1,.385.812v0.126h1.2l0.014-.266a1.743,1.743,0,0,0-.315-1.015,2.165,2.165,0,0,0-.931-0.728,4.186,4.186,0,0,0-3.591.294A1.789,1.789,0,0,0,166,10.586a1.578,1.578,0,0,0,.357,1.071,2.268,2.268,0,0,0,.868.623,10.406,10.406,0,0,0,1.323.42,10.273,10.273,0,0,1,1.064.315,1.881,1.881,0,0,1,.658.406,0.941,0.941,0,0,1-.2,1.47,2.232,2.232,0,0,1-1.183.287,2.468,2.468,0,0,1-1.344-.329,1.09,1.09,0,0,1-.518-0.987v-0.14h-1.218c0,0.01,0,.035-0.007.077s-0.007.119-.007,0.231a1.9,1.9,0,0,0,.322,1.064,2.231,2.231,0,0,0,1,.791,4.2,4.2,0,0,0,1.7.3h0Zm3.78-8.96h1.218V5.9H172.6v1.33Zm0,8.792h1.232V8.654H172.6v7.364Zm2.407,0h1.232V11.664a2.375,2.375,0,0,1,.266-1.148,1.886,1.886,0,0,1,.714-0.749,1.927,1.927,0,0,1,.98-0.259,1.671,1.671,0,0,1,1.134.343,1.57,1.57,0,0,1,.392,1.225v4.942h1.232V10.992a2.618,2.618,0,0,0-.595-1.911,2.3,2.3,0,0,0-1.7-.595,2.82,2.82,0,0,0-2.478,1.162h-0.1l-0.14-.994H175v7.364Zm10.206,0.168a3.612,3.612,0,0,0,2.289-.693,2.362,2.362,0,0,0,.889-1.981h-1.2a1.451,1.451,0,0,1-.546,1.246,2.332,2.332,0,0,1-1.428.406,2.066,2.066,0,0,1-1.631-.609,3.05,3.05,0,0,1-.609-1.883h5.418V12.056a3.9,3.9,0,0,0-.791-2.723,3.114,3.114,0,0,0-2.387-.847,3.438,3.438,0,0,0-2.646.938,4.18,4.18,0,0,0-.868,2.912,4.18,4.18,0,0,0,.868,2.912,3.437,3.437,0,0,0,2.646.938h0ZM183,11.65a2.56,2.56,0,0,1,.637-1.638,2.195,2.195,0,0,1,1.575-.5q1.89,0,1.89,2.142H183Zm8.694,4.536a3.756,3.756,0,0,0,2.177-.567,1.932,1.932,0,0,0,.819-1.7,1.713,1.713,0,0,0-.385-1.169,2.388,2.388,0,0,0-.931-0.658,12.221,12.221,0,0,0-1.414-.441q-0.63-.154-0.98-0.28a1.8,1.8,0,0,1-.588-0.336,0.68,0.68,0,0,1-.238-0.532,0.909,0.909,0,0,1,.336-0.693,1.773,1.773,0,0,1,1.176-.3,1.921,1.921,0,0,1,1.239.322,1.014,1.014,0,0,1,.385.812v0.126h1.2L194.5,10.5a1.743,1.743,0,0,0-.315-1.015,2.159,2.159,0,0,0-.931-0.728,4.186,4.186,0,0,0-3.591.294,1.791,1.791,0,0,0-.791,1.533,1.578,1.578,0,0,0,.357,1.071,2.276,2.276,0,0,0,.868.623,10.512,10.512,0,0,0,1.323.42,10.2,10.2,0,0,1,1.064.315,1.863,1.863,0,0,1,.658.406,0.886,0.886,0,0,1,.266.665,0.9,0.9,0,0,1-.469.8,2.229,2.229,0,0,1-1.183.287,2.473,2.473,0,0,1-1.344-.329,1.092,1.092,0,0,1-.518-0.987v-0.14H188.68c0,0.01,0,.035-0.007.077s-0.007.119-.007,0.231a1.9,1.9,0,0,0,.322,1.064,2.242,2.242,0,0,0,1,.791,4.209,4.209,0,0,0,1.7.3h0Zm6.3,0a3.756,3.756,0,0,0,2.177-.567,1.932,1.932,0,0,0,.819-1.7,1.713,1.713,0,0,0-.385-1.169,2.388,2.388,0,0,0-.931-0.658,12.221,12.221,0,0,0-1.414-.441q-0.63-.154-0.98-0.28a1.8,1.8,0,0,1-.588-0.336,0.68,0.68,0,0,1-.238-0.532,0.909,0.909,0,0,1,.336-0.693,1.773,1.773,0,0,1,1.176-.3,1.921,1.921,0,0,1,1.239.322,1.014,1.014,0,0,1,.385.812v0.126h1.2L200.8,10.5a1.743,1.743,0,0,0-.315-1.015,2.159,2.159,0,0,0-.931-0.728,4.186,4.186,0,0,0-3.591.294,1.791,1.791,0,0,0-.791,1.533,1.578,1.578,0,0,0,.357,1.071,2.276,2.276,0,0,0,.868.623,10.512,10.512,0,0,0,1.323.42,10.2,10.2,0,0,1,1.064.315,1.863,1.863,0,0,1,.658.406,0.886,0.886,0,0,1,.266.665,0.9,0.9,0,0,1-.469.8,2.229,2.229,0,0,1-1.183.287,2.473,2.473,0,0,1-1.344-.329,1.092,1.092,0,0,1-.518-0.987v-0.14H194.98c0,0.01,0,.035-0.007.077s-0.007.119-.007,0.231a1.9,1.9,0,0,0,.322,1.064,2.242,2.242,0,0,0,1,.791,4.209,4.209,0,0,0,1.7.3h0Z" transform="translate(-19.688)"/>
</svg>
