<svg id="realvilla" xmlns="http://www.w3.org/2000/svg" width="148.906" height="52" viewBox="0 0 148.906 52">
  <defs>
    <style>
      .cls-1 {
        fill: #221f1f;
      }

      .cls-1, .cls-2, .cls-3, .cls-4 {
        fill-rule: evenodd;
      }

      .cls-2 {
        fill: #b8babb;
      }

      .cls-3 {
        fill: #ff2d37;
      }

      .cls-4 {
        fill: #303030;
      }
    </style>
  </defs>
  <path class="cls-1" d="M32.916,18.54L22.254,35.732V0.015H32.916V18.54Z" transform="translate(-16)"/>
  <path class="cls-2" d="M69.193,24.571H83l-10.621-18L58.637,6.369Z" transform="translate(-16)"/>
  <path class="cls-3" d="M29.814,49.985L16,49.93,42.406,6.368,56.12,6.592Zm23.582-12H39.6L58.629,6.368,72.344,6.592Z" transform="translate(-16)"/>
  <path id="Realvilla-2" data-name="Realvilla" class="cls-1" d="M62.17,51.375H65.9V44.6h4.563A2.2,2.2,0,0,1,72,45.165a3.768,3.768,0,0,1,.972,1.728L74.4,51.375h3.861L76.75,46.569a10.137,10.137,0,0,0-.877-2.025,4.186,4.186,0,0,0-1.309-1.3V43.194a4.88,4.88,0,0,0,2.308-1.58,3.9,3.9,0,0,0,.8-2.443v-1.89a4.422,4.422,0,0,0-1.5-3.483,5.759,5.759,0,0,0-3.956-1.323H62.17v18.9Zm3.726-9.99v-5.67H72.16a1.781,1.781,0,0,1,1.3.472,1.671,1.671,0,0,1,.486,1.255V39.2a2.066,2.066,0,0,1-.648,1.58,2.5,2.5,0,0,1-1.782.607H65.9ZM84.93,51.591h2.052a7.517,7.517,0,0,0,3.011-.567,4.661,4.661,0,0,0,2.038-1.62A4.119,4.119,0,0,0,92.76,47H89.142a1.29,1.29,0,0,1-.581,1.093,2.55,2.55,0,0,1-1.525.419H84.93a2.138,2.138,0,0,1-1.539-.54,1.884,1.884,0,0,1-.567-1.431V45.894h9.99V43.032a5.06,5.06,0,0,0-1.566-3.888,5.858,5.858,0,0,0-4.158-1.458H84.93a6.482,6.482,0,0,0-3.011.675,4.984,4.984,0,0,0-2.038,1.89,5.352,5.352,0,0,0-.729,2.808v3.483a4.8,4.8,0,0,0,.729,2.633,4.86,4.86,0,0,0,2.038,1.782,6.826,6.826,0,0,0,3.011.635h0Zm-2.16-8.343V43.167a2.6,2.6,0,0,1,.594-1.782,1.985,1.985,0,0,1,1.566-.675h2.187a1.929,1.929,0,0,1,1.512.634,2.438,2.438,0,0,1,.567,1.688v0.216H82.77Zm16.119,8.343h1.674a3.967,3.967,0,0,0,1.863-.5,4.864,4.864,0,0,0,1.593-1.337v1.62h3.4v-9.1a4.182,4.182,0,0,0-1.458-3.335,5.669,5.669,0,0,0-3.834-1.255H99.807a5.739,5.739,0,0,0-3.794,1.2,3.923,3.923,0,0,0-1.444,3.172h3.564a1.128,1.128,0,0,1,.459-0.945,1.95,1.95,0,0,1,1.215-.351h2.322a1.647,1.647,0,0,1,1.175.418,1.432,1.432,0,0,1,.445,1.094v1.4a7.211,7.211,0,0,0-1.485-.513,6.693,6.693,0,0,0-1.512-.189H99.105a5.687,5.687,0,0,0-3.564,1.039,3.291,3.291,0,0,0-1.35,2.741v1a3.406,3.406,0,0,0,1.3,2.781,5.227,5.227,0,0,0,3.4,1.053h0Zm0.486-2.808a1.952,1.952,0,0,1-1.174-.324,0.992,0.992,0,0,1-.446-0.837v-0.7a1.05,1.05,0,0,1,.405-0.864,1.634,1.634,0,0,1,1.053-.324h1.7a6.849,6.849,0,0,1,1.634.189,3.324,3.324,0,0,1,1.2.513v0.459a2.925,2.925,0,0,1-1.134,1.377,3.178,3.178,0,0,1-1.782.513H99.375Zm14.985,2.592h1.728V48.243H114.63A1.071,1.071,0,0,1,113.388,47V32.475h-3.672V47.217a4.033,4.033,0,0,0,1.121,3.145,5.146,5.146,0,0,0,3.523,1.013h0Zm7.911,0h1.89L129.588,37.9h-3.861l-3.213,9.261H122.46L119.274,37.9h-3.861l4.644,11.718a3.247,3.247,0,0,0,.9,1.337,2.036,2.036,0,0,0,1.31.419h0Zm10.476-14.742a2.337,2.337,0,0,0,1.687-.608,2.35,2.35,0,0,0,0-3.213,2.647,2.647,0,0,0-3.375,0,2.352,2.352,0,0,0,0,3.213,2.339,2.339,0,0,0,1.688.608h0Zm-1.836,14.742h3.672V37.9h-3.672V51.375Zm11.258,0H143.9V48.243h-1.458A1.071,1.071,0,0,1,141.2,47V32.475h-3.672V47.217a4.037,4.037,0,0,0,1.121,3.145,5.147,5.147,0,0,0,3.523,1.013h0Zm7.155,0h1.728V48.243h-1.458A1.071,1.071,0,0,1,148.352,47V32.475H144.68V47.217a4.037,4.037,0,0,0,1.121,3.145,5.147,5.147,0,0,0,3.523,1.013h0Zm6.939,0.216h1.674a3.967,3.967,0,0,0,1.863-.5,4.864,4.864,0,0,0,1.593-1.337v1.62h3.4v-9.1a4.182,4.182,0,0,0-1.458-3.335,5.669,5.669,0,0,0-3.834-1.255h-2.322a5.736,5.736,0,0,0-3.793,1.2,3.921,3.921,0,0,0-1.445,3.172h3.564a1.129,1.129,0,0,1,.459-0.945,1.95,1.95,0,0,1,1.215-.351H159.5a1.647,1.647,0,0,1,1.175.418,1.432,1.432,0,0,1,.445,1.094v1.4a7.211,7.211,0,0,0-1.485-.513,6.693,6.693,0,0,0-1.512-.189h-1.647a5.687,5.687,0,0,0-3.564,1.039,3.292,3.292,0,0,0-1.35,2.741v1a3.406,3.406,0,0,0,1.3,2.781,5.227,5.227,0,0,0,3.4,1.053h0Zm0.486-2.808a1.95,1.95,0,0,1-1.174-.324,0.993,0.993,0,0,1-.446-0.837v-0.7a1.05,1.05,0,0,1,.405-0.864,1.634,1.634,0,0,1,1.053-.324h1.7a6.849,6.849,0,0,1,1.634.189,3.324,3.324,0,0,1,1.2.513v0.459a2.925,2.925,0,0,1-1.134,1.377,3.178,3.178,0,0,1-1.782.513h-1.458Z" transform="translate(-16)"/>
  <path id="dream_home" data-name="dream home" class="cls-4" d="M101.518,28.471h0.828a1.667,1.667,0,0,0,.864-0.27,2.173,2.173,0,0,0,.72-0.714v0.888h0.84v-8.4h-0.864v3.036a1.594,1.594,0,0,0-.606-0.528,1.719,1.719,0,0,0-.786-0.192h-0.888a2.175,2.175,0,0,0-1.152.306,2.047,2.047,0,0,0-.781.864,2.844,2.844,0,0,0-.276,1.278v1.44a2.6,2.6,0,0,0,.264,1.2,1.947,1.947,0,0,0,.745.8,2.078,2.078,0,0,0,1.092.288h0Zm0.024-.768a1.123,1.123,0,0,1-.906-0.426,1.655,1.655,0,0,1-.354-1.1v-1.44a1.863,1.863,0,0,1,.378-1.218,1.218,1.218,0,0,1,.99-0.462h0.84a1.277,1.277,0,0,1,.942.4,1.762,1.762,0,0,1,.474,1.032V26a1.855,1.855,0,0,1-.252.816,1.942,1.942,0,0,1-.588.642,1.3,1.3,0,0,1-.744.246h-0.78Zm4.931,0.672h0.864V24.919a1.769,1.769,0,0,1,.474-1.29,1.657,1.657,0,0,1,1.242-.486h0.528v-0.78h-0.528a2.1,2.1,0,0,0-1.014.264,1.8,1.8,0,0,0-.726.684V22.387h-0.84v5.988Zm5.94,0.1h0.912a2.262,2.262,0,0,0,1.584-.546,1.847,1.847,0,0,0,.6-1.434h-0.84a1.12,1.12,0,0,1-.372.882,1.41,1.41,0,0,1-.972.33h-0.912a1.316,1.316,0,0,1-.99-0.39,1.4,1.4,0,0,1-.378-1.014v-0.72h4.488V24.523a2.24,2.24,0,0,0-.588-1.62,2.048,2.048,0,0,0-1.548-.612h-0.984a2.156,2.156,0,0,0-1.62.63,2.284,2.284,0,0,0-.612,1.662V26.3a2.1,2.1,0,0,0,.612,1.578,2.227,2.227,0,0,0,1.62.594h0Zm-1.368-3.636V24.583a1.588,1.588,0,0,1,.378-1.1,1.269,1.269,0,0,1,.99-0.42H113.4a1.162,1.162,0,0,1,.924.4,1.566,1.566,0,0,1,.348,1.062v0.312h-3.624Zm7.608,3.636h0.72a1.88,1.88,0,0,0,.93-0.252,2.019,2.019,0,0,0,.726-0.684v0.84h0.816V24.187a1.814,1.814,0,0,0-.546-1.374,1.989,1.989,0,0,0-1.434-.522h-0.96a2.226,2.226,0,0,0-1.452.45,1.451,1.451,0,0,0-.552,1.182h0.864a0.763,0.763,0,0,1,.312-0.636,1.323,1.323,0,0,1,.828-0.24h0.96a1.108,1.108,0,0,1,.828.318,1.124,1.124,0,0,1,.312.822v1a2.492,2.492,0,0,0-.72-0.324,2.968,2.968,0,0,0-.816-0.12H118.7a2.14,2.14,0,0,0-1.428.456,1.507,1.507,0,0,0-.54,1.212v0.384a1.543,1.543,0,0,0,.522,1.224,2.049,2.049,0,0,0,1.4.456h0Zm0-.756a1.125,1.125,0,0,1-.768-0.252,0.848,0.848,0,0,1-.288-0.672V26.407a0.814,0.814,0,0,1,.306-0.66,1.215,1.215,0,0,1,.8-0.252h0.768a2.809,2.809,0,0,1,.87.138,1.727,1.727,0,0,1,.666.366v0.444a1.7,1.7,0,0,1-.6.924,1.59,1.59,0,0,1-1.008.348h-0.744Zm11.388-5.424h-0.732a1.555,1.555,0,0,0-.84.24,2,2,0,0,0-.66.72,1.457,1.457,0,0,0-1.428-.96h-0.708a1.3,1.3,0,0,0-.756.252,1.953,1.953,0,0,0-.6.708V22.387h-0.84v5.988h0.864V24.619a2.133,2.133,0,0,1,.468-1.128,1.113,1.113,0,0,1,.864-0.432h0.684a0.7,0.7,0,0,1,.606.318,1.522,1.522,0,0,1,.222.882v4.116h0.864V24.391a1.754,1.754,0,0,1,.432-0.984,1.134,1.134,0,0,1,.852-0.348h0.684a0.774,0.774,0,0,1,.636.3,1.292,1.292,0,0,1,.24.828v4.188h0.864V24.211a2.024,2.024,0,0,0-.462-1.41,1.608,1.608,0,0,0-1.254-.51h0Zm6.348,6.084h0.864V24.619a1.968,1.968,0,0,1,.582-1.122,1.459,1.459,0,0,1,1.026-.438h0.792a0.888,0.888,0,0,1,.732.348,1.405,1.405,0,0,1,.276.9v4.068h0.864V24.331a2.117,2.117,0,0,0-.51-1.476,1.719,1.719,0,0,0-1.338-.564h-0.84a1.721,1.721,0,0,0-.876.252,2.108,2.108,0,0,0-.708.672v-3.24h-0.864v8.4Zm8.76,0.1h0.984a2.145,2.145,0,0,0,2.28-2.268V24.559a2.235,2.235,0,0,0-.618-1.644,2.2,2.2,0,0,0-1.638-.624h-0.984a2.2,2.2,0,0,0-1.638.624,2.235,2.235,0,0,0-.618,1.644V26.2a2.247,2.247,0,0,0,.612,1.644,2.166,2.166,0,0,0,1.62.624h0Zm0-.768a1.282,1.282,0,0,1-1-.408,1.558,1.558,0,0,1-.372-1.092V24.559a1.533,1.533,0,0,1,.384-1.086,1.31,1.31,0,0,1,1.008-.414h0.984a1.31,1.31,0,0,1,1.008.414,1.533,1.533,0,0,1,.384,1.086V26.2a1.533,1.533,0,0,1-.384,1.086,1.34,1.34,0,0,1-1.032.414h-0.984Zm11.292-5.412h-0.732a1.555,1.555,0,0,0-.84.24,2,2,0,0,0-.66.72,1.457,1.457,0,0,0-1.428-.96h-0.708a1.3,1.3,0,0,0-.756.252,1.953,1.953,0,0,0-.6.708V22.387h-0.84v5.988h0.864V24.619a2.133,2.133,0,0,1,.468-1.128,1.113,1.113,0,0,1,.864-0.432h0.684a0.7,0.7,0,0,1,.606.318,1.522,1.522,0,0,1,.222.882v4.116h0.864V24.391a1.754,1.754,0,0,1,.432-0.984,1.134,1.134,0,0,1,.852-0.348h0.684a0.774,0.774,0,0,1,.636.3,1.292,1.292,0,0,1,.24.828v4.188h0.864V24.211a2.024,2.024,0,0,0-.462-1.41,1.608,1.608,0,0,0-1.254-.51h0Zm5.34,6.18h0.912a2.262,2.262,0,0,0,1.584-.546,1.847,1.847,0,0,0,.6-1.434h-0.84a1.12,1.12,0,0,1-.372.882,1.41,1.41,0,0,1-.972.33h-0.912a1.316,1.316,0,0,1-.99-0.39,1.4,1.4,0,0,1-.378-1.014v-0.72H164.9V24.523a2.24,2.24,0,0,0-.588-1.62,2.048,2.048,0,0,0-1.548-.612h-0.984a2.156,2.156,0,0,0-1.62.63,2.284,2.284,0,0,0-.612,1.662V26.3a2.1,2.1,0,0,0,.612,1.578,2.227,2.227,0,0,0,1.62.594h0Zm-1.368-3.636V24.583a1.588,1.588,0,0,1,.378-1.1,1.269,1.269,0,0,1,.99-0.42h0.984a1.162,1.162,0,0,1,.924.4,1.566,1.566,0,0,1,.348,1.062v0.312h-3.624Z" transform="translate(-16)"/>
</svg>
